<?xml version="1.0" encoding="UTF-8" standalone="no"?>
<svg
   xmlns:dc="http://purl.org/dc/elements/1.1/"
   xmlns:cc="http://creativecommons.org/ns#"
   xmlns:rdf="http://www.w3.org/1999/02/22-rdf-syntax-ns#"
   xmlns:svg="http://www.w3.org/2000/svg"
   xmlns="http://www.w3.org/2000/svg"
   xmlns:sodipodi="http://sodipodi.sourceforge.net/DTD/sodipodi-0.dtd"
   xmlns:inkscape="http://www.inkscape.org/namespaces/inkscape"
   width="10mm"
   height="10mm"
   viewBox="0 0 10 10"
   version="1.1"
   id="svg8"
   inkscape:version="1.0.1 (3bc2e813f5, 2020-09-07)"
   sodipodi:docname="question-info1.svg">
  <defs
     id="defs2" />
  <sodipodi:namedview
     id="base"
     pagecolor="#ffffff"
     bordercolor="#666666"
     borderopacity="1.0"
     inkscape:pageopacity="0.0"
     inkscape:pageshadow="2"
     inkscape:zoom="5.6"
     inkscape:cx="46.665121"
     inkscape:cy="56.574887"
     inkscape:document-units="mm"
     inkscape:current-layer="layer1"
     inkscape:document-rotation="0"
     showgrid="false"
     inkscape:window-width="1920"
     inkscape:window-height="1027"
     inkscape:window-x="-8"
     inkscape:window-y="-8"
     inkscape:window-maximized="1"
     fit-margin-top="0"
     fit-margin-left="0"
     fit-margin-right="0"
     fit-margin-bottom="0" />
  <metadata
     id="metadata5">
    <rdf:RDF>
      <cc:Work
         rdf:about="">
        <dc:format>image/svg+xml</dc:format>
        <dc:type
           rdf:resource="http://purl.org/dc/dcmitype/StillImage" />
        <dc:title></dc:title>
      </cc:Work>
    </rdf:RDF>
  </metadata>
  <g
     inkscape:label="Слой 1"
     inkscape:groupmode="layer"
     id="layer1"
     transform="translate(-64.633926,-101.20087)">
    <circle
       style="opacity:1;fill:#ef9500;fill-opacity:1;fill-rule:evenodd;stroke-width:0.938769"
       id="path833-5"
       cx="69.633926"
       cy="106.20087"
       r="5" />
    <ellipse
       style="opacity:1;fill:#ff7600;fill-opacity:1;fill-rule:evenodd;stroke-width:0.88848"
       id="path833"
       cx="69.617744"
       cy="106.18497"
       rx="4.7249188"
       ry="4.7394333" />
    <g
       transform="matrix(6.65755e-4,0,0,-6.07685e-4,65.352913,110.17587)"
       fill="#000000"
       stroke="none"
       id="g841"
       style="fill:#ffffff">
      <path
         d="m 5970,12090 c -417,-39 -761,-113 -1094,-236 -154,-56 -404,-178 -550,-267 -328,-202 -651,-502 -876,-817 -340,-475 -557,-1060 -660,-1783 -12,-81 -19,-151 -16,-156 3,-5 47,-34 96,-65 l 91,-56 672,-80 c 370,-44 685,-81 702,-83 l 29,-2 28,150 c 166,905 518,1459 1115,1759 267,133 553,196 900,196 485,0 899,-141 1253,-427 171,-139 357,-351 469,-537 238,-393 302,-907 165,-1326 -39,-120 -137,-307 -215,-410 C 7913,7729 7660,7471 7260,7115 6665,6584 6395,6302 6184,5990 5776,5388 5612,4728 5637,3787 l 6,-247 691,2 691,3 2,105 c 6,302 37,709 69,895 57,336 189,636 393,890 94,118 451,467 766,750 914,822 1312,1312 1528,1882 223,586 235,1285 32,1901 -150,453 -433,881 -816,1231 -544,498 -1190,775 -2044,876 -162,20 -828,29 -985,15 z"
         id="path837"
         style="fill:#ffffff" />
      <path
         d="m 5581,2590 c -20,-98 -21,-121 -21,-920 V 850 h 810 810 v 828 c -1,740 -3,836 -18,917 l -17,90 -771,3 -771,2 z"
         id="path839"
         style="fill:#ffffff" />
    </g>
  </g>
</svg>
